<svg width="64" height="64" viewBox="0 0 64 64" fill="none" xmlns="http://www.w3.org/2000/svg">
<path d="M28.7082 58.4757L9.96324 47.6529C8.1705 46.619 7.06641 44.7048 7.06641 42.6351V20.9895C7.06641 18.9198 8.1705 17.0056 9.96324 15.9717L28.7082 5.14891C30.501 4.11311 32.7092 4.11311 34.5019 5.14891L53.2469 15.9717C55.0396 17.0075 56.1437 18.9198 56.1437 20.9895V42.6351C56.1437 44.7048 55.0396 46.619 53.2469 47.6529L34.5019 58.4757C32.7111 59.5115 30.501 59.5115 28.7082 58.4757Z" fill="#E5E5E5"/>
<path d="M39.3705 32.1727V32.1671C39.3705 29.4201 39.3705 26.6333 39.3705 23.9167H39.3554C39.2055 23.302 38.6364 22.8828 38.0046 22.9264V22.9435H26.3566V22.9264C23.5584 22.5337 21.3218 20.4033 20.7925 17.6317H39.4047L39.4085 17.6127C42.2522 18.3032 44.3447 20.7277 44.6084 23.6454L44.5818 23.6738L44.523 46.3496C41.8045 45.9322 39.6911 43.7582 39.3554 41.0264V40.9543C39.3554 39.6662 39.3554 38.3781 39.3554 37.09L39.3269 37.0881C36.8493 37.1184 34.3926 37.1184 31.9207 37.0881L31.9188 37.1127C29.1358 36.9761 26.8214 34.9216 26.3566 32.1727H39.3705Z" fill="#7661AA"/>
<path d="M27.0878 40.8651H37.3073C36.7837 43.6463 34.5433 45.7824 31.7394 46.177L31.7318 46.1883H23.9993V46.177C20.8388 45.6951 18.5794 42.8666 18.8052 39.6776H18.8071V31.1331L18.8052 31.1237C18.5794 27.9423 20.8274 25.1213 23.9747 24.6281L23.9766 24.6433H31.7318L31.7394 24.6243C34.549 25.0189 36.7913 27.1626 37.3111 29.9513L37.3092 29.9664H24.3332V38.1789L24.3124 38.1884C24.5457 39.5922 25.6764 40.6754 27.0878 40.85V40.8651Z" fill="#7151A1"/>
</svg>
